<?xml version="1.0" encoding="UTF-8"?>
<svg xmlns="http://www.w3.org/2000/svg" width="128" height="128" viewBox="0 0 128 128">
  <defs>
    <clipPath id="outerClip">
      <circle cx="64" cy="64" r="64"></circle>
    </clipPath>
  </defs>

  
  <circle cx="64" cy="64" r="59" fill="none" stroke="#FFFFFF" stroke-width="10"></circle>

  
  <g clip-path="url(#outerClip)">
    <rect x="58" y="-1" width="12" height="10" rx="2" fill="#1a1a1a" transform="rotate(0,   64, 64)"></rect>
    <rect x="58" y="-1" width="12" height="10" rx="2" fill="#1a1a1a" transform="rotate(45,  64, 64)"></rect>
    <rect x="58" y="-1" width="12" height="10" rx="2" fill="#1a1a1a" transform="rotate(90,  64, 64)"></rect>
    <rect x="58" y="-1" width="12" height="10" rx="2" fill="#1a1a1a" transform="rotate(135, 64, 64)"></rect>
    <rect x="58" y="-1" width="12" height="10" rx="2" fill="#1a1a1a" transform="rotate(180, 64, 64)"></rect>
    <rect x="58" y="-1" width="12" height="10" rx="2" fill="#1a1a1a" transform="rotate(225, 64, 64)"></rect>
    <rect x="58" y="-1" width="12" height="10" rx="2" fill="#1a1a1a" transform="rotate(270, 64, 64)"></rect>
    <rect x="58" y="-1" width="12" height="10" rx="2" fill="#1a1a1a" transform="rotate(315, 64, 64)"></rect>
  </g>

  
  <circle cx="64" cy="64" r="46" fill="none" stroke="#E0E0E0" stroke-width="1.5" stroke-opacity="0.8" stroke-dasharray="5 4"></circle>

  
  <circle cx="64" cy="64" r="34" fill="none" stroke="#E0E0E0" stroke-width="2" stroke-opacity="0.7"></circle>

  
  
  <circle cx="64" cy="64" r="22" fill="#FFFFFF"></circle>

  <circle cx="64" cy="18" r="3" fill="#E0E0E0" opacity="0.9"></circle>
  <circle cx="110" cy="64" r="3" fill="#E0E0E0" opacity="0.9"></circle>
  <circle cx="64" cy="110" r="3" fill="#E0E0E0" opacity="0.9"></circle>
  <circle cx="18" cy="64" r="3" fill="#E0E0E0" opacity="0.9"></circle>
</svg>